<svg width="20" height="20" viewBox="0 0 20 20" fill="none" xmlns="http://www.w3.org/2000/svg">
<path d="M5.09985 17C4.51651 17 4.02068 16.7958 3.61235 16.3875C3.20401 15.9792 2.99985 15.4833 2.99985 14.9V5.1C2.99985 4.51667 3.20401 4.02083 3.61235 3.6125C4.02068 3.20417 4.51651 3 5.09985 3H14.8998C15.4832 3 15.979 3.20417 16.3873 3.6125C16.7957 4.02083 16.9998 4.51667 16.9998 5.1V14.9C16.9998 15.4833 16.7957 15.9792 16.3873 16.3875C15.979 16.7958 15.4832 17 14.8998 17H5.09985ZM5.09985 15.6H14.8998C15.0982 15.6 15.2643 15.5328 15.3982 15.3984C15.5326 15.2645 15.5998 15.0983 15.5998 14.9V5.1C15.5998 4.90167 15.5326 4.7353 15.3982 4.6009C15.2643 4.46697 15.0982 4.4 14.8998 4.4H5.09985C4.90151 4.4 4.73515 4.46697 4.60075 4.6009C4.46681 4.7353 4.39985 4.90167 4.39985 5.1V14.9C4.39985 15.0983 4.46681 15.2645 4.60075 15.3984C4.73515 15.5328 4.90151 15.6 5.09985 15.6ZM5.79985 14.2L8.59985 11.4L9.85985 12.6425L11.3998 10.7L14.1998 14.2H5.79985ZM7.19985 8.6C6.81485 8.6 6.48538 8.4628 6.21145 8.1884C5.93705 7.91446 5.79985 7.585 5.79985 7.2C5.79985 6.815 5.93705 6.48553 6.21145 6.2116C6.48538 5.9372 6.81485 5.8 7.19985 5.8C7.58485 5.8 7.91455 5.9372 8.18895 6.2116C8.46288 6.48553 8.59985 6.815 8.59985 7.2C8.59985 7.585 8.46288 7.91446 8.18895 8.1884C7.91455 8.4628 7.58485 8.6 7.19985 8.6Z" fill="#454C53"/>
</svg>
