<svg width="30" height="30" viewBox="0 0 30 30" fill="none" xmlns="http://www.w3.org/2000/svg">
<g id="Icon/Background">
<path id="Vector" d="M7.65 25.5C6.775 25.5 6.03125 25.1937 5.41875 24.5812C4.80625 23.9687 4.5 23.225 4.5 22.35V7.65C4.5 6.775 4.80625 6.03125 5.41875 5.41875C6.03125 4.80625 6.775 4.5 7.65 4.5H22.35C23.225 4.5 23.9687 4.80625 24.5812 5.41875C25.1937 6.03125 25.5 6.775 25.5 7.65V22.35C25.5 23.225 25.1937 23.9687 24.5812 24.5812C23.9687 25.1937 23.225 25.5 22.35 25.5H7.65ZM7.65 23.4H22.35C22.6475 23.4 22.8967 23.2992 23.0976 23.0976C23.2992 22.8967 23.4 22.6475 23.4 22.35V7.65C23.4 7.3525 23.2992 7.10295 23.0976 6.90135C22.8967 6.70045 22.6475 6.6 22.35 6.6H7.65C7.3525 6.6 7.10295 6.70045 6.90135 6.90135C6.70045 7.10295 6.6 7.3525 6.6 7.65V22.35C6.6 22.6475 6.70045 22.8967 6.90135 23.0976C7.10295 23.2992 7.3525 23.4 7.65 23.4ZM8.7 21.3L12.9 17.1L14.79 18.9637L17.1 16.05L21.3 21.3H8.7ZM10.8 12.9C10.2225 12.9 9.7283 12.6942 9.3174 12.2826C8.9058 11.8717 8.7 11.3775 8.7 10.8C8.7 10.2225 8.9058 9.7283 9.3174 9.3174C9.7283 8.9058 10.2225 8.7 10.8 8.7C11.3775 8.7 11.872 8.9058 12.2836 9.3174C12.6945 9.7283 12.9 10.2225 12.9 10.8C12.9 11.3775 12.6945 11.8717 12.2836 12.2826C11.872 12.6942 11.3775 12.9 10.8 12.9Z" fill="white"/>
</g>
</svg>
