<svg viewBox="0 0 34 34" fill="none" xmlns="http://www.w3.org/2000/svg">
<path d="M17 2.125C8.789 2.125 2.125 8.789 2.125 17C2.125 25.211 8.789 31.875 17 31.875C25.211 31.875 31.875 25.211 31.875 17C31.875 8.789 25.211 2.125 17 2.125ZM17 5.525C19.414 5.525 21.658 6.2815 23.5025 7.5565L7.5565 23.5025C6.2815 21.658 5.525 19.414 5.525 17C5.525 10.676 10.676 5.525 17 5.525ZM17 28.475C14.314 28.475 11.8405 27.54 9.8855 25.9845L25.9845 9.8855C27.54 11.8405 28.475 14.314 28.475 17C28.475 23.324 23.324 28.475 17 28.475Z" fill="currentColor"/>
</svg>
