<svg viewBox="0 0 20 20" fill="none" xmlns="http://www.w3.org/2000/svg">
<path fill-rule="evenodd" clip-rule="evenodd" d="M15.1712 4.06167C15.6399 4.06167 16.0894 4.24784 16.4208 4.57924C16.7522 4.91064 16.9383 5.36011 16.9383 5.82877V12.6233C16.9383 13.092 16.7522 13.5414 16.4208 13.8728C16.0894 14.2042 15.6399 14.3904 15.1712 14.3904H13.4726C13.0414 14.3904 12.6918 14.74 12.6918 15.1712V16.3401L9.62777 14.5017C9.50641 14.4289 9.36755 14.3904 9.22603 14.3904H4.97946C4.5108 14.3904 4.06133 14.2042 3.72993 13.8728C3.39853 13.5414 3.21236 13.092 3.21236 12.6233V5.82877C3.21236 5.36011 3.39853 4.91064 3.72993 4.57924C4.06133 4.24784 4.5108 4.06167 4.97946 4.06167H15.1712ZM17.525 3.47498C16.9008 2.85071 16.0541 2.5 15.1712 2.5H4.97946C4.09661 2.5 3.24993 2.85071 2.62566 3.47498C2.0014 4.09924 1.65069 4.94593 1.65069 5.82877V12.6233C1.65069 13.5061 2.0014 14.3528 2.62566 14.9771C3.24993 15.6013 4.09661 15.9521 4.97946 15.9521H9.00975L13.0709 18.3887C13.3121 18.5335 13.6125 18.5372 13.8573 18.3986C14.1021 18.26 14.2534 18.0005 14.2534 17.7192V15.9521H15.1712C16.0541 15.9521 16.9008 15.6013 17.525 14.9771C18.1493 14.3528 18.5 13.5061 18.5 12.6233V5.82877C18.5 4.94593 18.1493 4.09924 17.525 3.47498Z" fill="currentColor"/>
<path d="M12.6083 9.1016C12.6083 9.72886 13.1167 10.2374 13.744 10.2374C14.3713 10.2374 14.8798 9.72886 14.8798 9.1016C14.8798 8.47434 14.3713 7.96584 13.744 7.96584C13.1167 7.96584 12.6083 8.47434 12.6083 9.1016Z" fill="currentColor"/>
<path d="M8.91703 9.1016C8.91703 9.72886 9.42552 10.2374 10.0528 10.2374C10.68 10.2374 11.1885 9.72886 11.1885 9.1016C11.1885 8.47434 10.68 7.96584 10.0528 7.96584C9.42552 7.96584 8.91703 8.47434 8.91703 9.1016Z" fill="currentColor"/>
<path d="M5.2258 9.1016C5.2258 9.72886 5.7343 10.2374 6.36156 10.2374C6.98882 10.2374 7.49732 9.72886 7.49732 9.1016C7.49732 8.47434 6.98882 7.96584 6.36156 7.96584C5.7343 7.96584 5.2258 8.47434 5.2258 9.1016Z" fill="currentColor"/>
</svg>
