<svg viewBox="0 0 22 22" fill="none" xmlns="http://www.w3.org/2000/svg">
<path fill-rule="evenodd" clip-rule="evenodd" d="M11 19.25C12.0834 19.25 13.1562 19.0366 14.1571 18.622C15.1581 18.2074 16.0675 17.5997 16.8336 16.8336C17.5997 16.0675 18.2074 15.1581 18.622 14.1571C19.0366 13.1562 19.25 12.0834 19.25 11C19.25 9.91659 19.0366 8.8438 18.622 7.84286C18.2074 6.84193 17.5997 5.93245 16.8336 5.16637C16.0675 4.40029 15.1581 3.7926 14.1571 3.37799C13.1562 2.96339 12.0834 2.75 11 2.75C8.81196 2.75 6.71354 3.61919 5.16637 5.16637C3.61919 6.71354 2.75 8.81196 2.75 11C2.75 13.188 3.61919 15.2865 5.16637 16.8336C6.71354 18.3808 8.81196 19.25 11 19.25ZM15.3707 8.83667C15.4511 8.74467 15.5124 8.63751 15.5509 8.52149C15.5893 8.40546 15.6042 8.28292 15.5946 8.16107C15.585 8.03922 15.5511 7.92052 15.4949 7.81195C15.4388 7.70338 15.3615 7.60715 15.2676 7.5289C15.1737 7.45065 15.0651 7.39197 14.9482 7.35631C14.8313 7.32065 14.7084 7.30873 14.5868 7.32126C14.4652 7.33379 14.3474 7.3705 14.2402 7.42925C14.133 7.48799 14.0386 7.56758 13.9627 7.66333L10.6645 11.6206C10.3464 12.0019 10.1677 12.2137 10.0256 12.3429L10.0201 12.3484L10.0137 12.3438C9.85967 12.2274 9.66258 12.0331 9.31242 11.682L7.98142 10.3519C7.80853 10.1849 7.57698 10.0925 7.33663 10.0946C7.09629 10.0967 6.86637 10.1931 6.69642 10.3631C6.52646 10.533 6.43005 10.763 6.42796 11.0033C6.42588 11.2436 6.51827 11.4752 6.68525 11.6481L8.01533 12.9782L8.05292 13.0158C8.35267 13.3155 8.63958 13.6033 8.90817 13.8059C9.20792 14.0332 9.60117 14.2459 10.1044 14.2239C10.6086 14.201 10.9808 13.9526 11.2594 13.6996C11.5069 13.4732 11.7682 13.1606 12.0386 12.8352L12.0725 12.7948L15.3707 8.83667Z" fill="currentColor"/>
</svg>
