<svg width="20" height="20" viewBox="0 0 20 20" fill="none" xmlns="http://www.w3.org/2000/svg">
<g id="Icon/Close">
<path id="Vector" d="M4.78947 17.7368C4.09185 18.4345 2.96078 18.4345 2.26316 17.7368C1.56554 17.0392 1.56553 15.9081 2.26316 15.2105L7.49624 9.97744L2.26976 4.78726C1.56921 4.09157 1.56723 2.95908 2.26536 2.26096C2.96177 1.56455 4.09087 1.56455 4.78727 2.26096L10.0226 7.49624L15.2149 2.26755C15.9094 1.56822 17.0399 1.56625 17.7368 2.26316C18.4338 2.96007 18.4318 4.09059 17.7324 4.78506L12.5038 9.97744L17.739 15.2127C18.4354 15.9091 18.4354 17.0382 17.739 17.7346C17.0409 18.4328 15.9084 18.4308 15.2127 17.7302L10.0226 12.5038L4.78947 17.7368Z" fill="white"/>
</g>
</svg>
