<svg width="20" height="20" viewBox="0 0 20 20" xmlns="http://www.w3.org/2000/svg">
<path d="M9.99969 17.2218C6.02024 17.2218 2.77747 13.979 2.77747 9.99957C2.77747 6.02012 6.02024 2.77734 9.99969 2.77734C13.9791 2.77734 17.2219 5.69512 17.2219 9.27734C17.2219 11.6679 15.2791 13.6107 12.8886 13.6107H11.6102C11.408 13.6107 11.2491 13.7696 11.2491 13.9718C11.2491 14.0585 11.2852 14.1379 11.343 14.2101C11.6391 14.5496 11.8052 14.9757 11.8052 15.4162C11.8052 16.4129 10.9964 17.2218 9.99969 17.2218ZM9.99969 4.22179C6.81469 4.22179 4.22191 6.81457 4.22191 9.99957C4.22191 13.1846 6.81469 15.7773 9.99969 15.7773C10.2019 15.7773 10.3608 15.6185 10.3608 15.4162C10.3608 15.3007 10.303 15.214 10.2597 15.1635C9.96358 14.8312 9.80469 14.4051 9.80469 13.9718C9.80469 12.9751 10.6136 12.1662 11.6102 12.1662H12.8886C14.4847 12.1662 15.7775 10.8735 15.7775 9.27734C15.7775 6.48957 13.1847 4.22179 9.99969 4.22179Z" fill="#454C53"/>
<path d="M6.02718 10.7214C6.62549 10.7214 7.11051 10.2363 7.11051 9.63802C7.11051 9.03971 6.62549 8.55469 6.02718 8.55469C5.42887 8.55469 4.94385 9.03971 4.94385 9.63802C4.94385 10.2363 5.42887 10.7214 6.02718 10.7214Z" fill="#454C53"/>
<path d="M8.19436 7.83268C8.79266 7.83268 9.27769 7.34766 9.27769 6.74935C9.27769 6.15104 8.79266 5.66602 8.19436 5.66602C7.59605 5.66602 7.11102 6.15104 7.11102 6.74935C7.11102 7.34766 7.59605 7.83268 8.19436 7.83268Z" fill="#454C53"/>
<path d="M11.8053 7.83268C12.4036 7.83268 12.8886 7.34766 12.8886 6.74935C12.8886 6.15104 12.4036 5.66602 11.8053 5.66602C11.2069 5.66602 10.7219 6.15104 10.7219 6.74935C10.7219 7.34766 11.2069 7.83268 11.8053 7.83268Z" fill="#454C53"/>
<path d="M13.9715 10.7214C14.5698 10.7214 15.0549 10.2363 15.0549 9.63802C15.0549 9.03971 14.5698 8.55469 13.9715 8.55469C13.3732 8.55469 12.8882 9.03971 12.8882 9.63802C12.8882 10.2363 13.3732 10.7214 13.9715 10.7214Z" fill="#454C53"/>
</svg>
