<svg viewBox="0 0 12 12" fill="none" xmlns="http://www.w3.org/2000/svg">
<g fill="currentColor">
<path d="M6 0C2.68661 0 0 2.68661 0 6C0 9.31339 2.68661 12 6 12C9.31339 12 12 9.31339 12 6C12 2.68661 9.31339 0 6 0ZM6 10.9821C3.24911 10.9821 1.01786 8.75089 1.01786 6C1.01786 3.24911 3.24911 1.01786 6 1.01786C8.75089 1.01786 10.9821 3.24911 10.9821 6C10.9821 8.75089 8.75089 10.9821 6 10.9821Z"/>
<path d="M5.35742 3.64286C5.35742 3.81335 5.42515 3.97687 5.54571 4.09743C5.66627 4.21799 5.82978 4.28571 6.00028 4.28571C6.17078 4.28571 6.33429 4.21799 6.45485 4.09743C6.57541 3.97687 6.64314 3.81335 6.64314 3.64286C6.64314 3.47236 6.57541 3.30885 6.45485 3.18829C6.33429 3.06773 6.17078 3 6.00028 3C5.82978 3 5.66627 3.06773 5.54571 3.18829C5.42515 3.30885 5.35742 3.47236 5.35742 3.64286ZM6.32171 5.14286H5.67885C5.61992 5.14286 5.57171 5.19107 5.57171 5.25V8.89286C5.57171 8.95179 5.61992 9 5.67885 9H6.32171C6.38064 9 6.42885 8.95179 6.42885 8.89286V5.25C6.42885 5.19107 6.38064 5.14286 6.32171 5.14286Z"/>
</g>
</svg>
