<svg viewBox="0 0 34 34" fill="none" xmlns="http://www.w3.org/2000/svg">
<path d="M26.3501 20.7308L26.3424 3.7682V3.76565V3.7631V3.7053H26.3365C26.3025 2.23395 25.104 1.04905 23.625 1.0482C22.146 1.04735 20.9492 2.23055 20.9169 3.7019H20.9109L20.916 14.0268L17.9521 2.98535L17.9274 2.99215C17.5067 1.56925 16.0345 0.720102 14.6065 1.0941C13.1606 1.47235 12.3123 2.959 12.711 4.4142C12.7195 4.4448 12.7348 4.47115 12.7441 4.5009L13.7123 8.10575L14.5793 11.3358L14.5827 11.3477C14.4909 11.3451 14.4008 11.3358 14.309 11.3358C10.8325 11.3358 7.14687 12.5878 5.32617 16.6346C4.89012 17.6045 4.74222 18.7928 5.68402 19.3937C6.48387 19.9046 7.64327 19.7847 8.31222 18.9993C9.08487 18.0924 10.6633 15.8832 12.7059 15.8832C14.7484 15.8832 16.5198 17.1251 16.5198 20.027C16.5198 22.6458 12.5257 25.0479 9.16137 21.619L9.15372 21.625C9.11802 21.5765 9.09082 21.5247 9.05087 21.4788C8.24847 20.5565 6.85022 20.4605 5.92712 21.2637C5.00402 22.067 4.90542 23.4652 5.70782 24.3875C8.35387 27.9643 11.232 31.451 17.6656 31.451C22.463 31.451 26.3518 27.5622 26.3518 22.7648V20.7316L26.3501 20.7308Z" fill="currentColor"/>
</svg>
