<svg viewBox="0 0 20 20" fill="none" xmlns="http://www.w3.org/2000/svg">
<path d="M11.011 9.21776C11.5054 8.52689 11.7713 7.6986 11.7713 6.84902C11.7713 5.99944 11.5054 5.17116 11.011 4.48029C11.474 4.16489 12.0218 3.99742 12.582 4.00003C13.3376 4.00003 14.0622 4.30019 14.5965 4.83448C15.1308 5.36877 15.431 6.09342 15.431 6.84902C15.431 7.60462 15.1308 8.32928 14.5965 8.86356C14.0622 9.39785 13.3376 9.69802 12.582 9.69802C12.0218 9.70062 11.474 9.53316 11.011 9.21776ZM4.84899 6.84902C4.84899 6.28555 5.01608 5.73472 5.32913 5.26621C5.64219 4.79769 6.08714 4.43253 6.60772 4.2169C7.12831 4.00126 7.70115 3.94484 8.2538 4.05477C8.80645 4.1647 9.31409 4.43604 9.71253 4.83448C10.111 5.23292 10.3823 5.74056 10.4922 6.29321C10.6022 6.84586 10.5457 7.4187 10.3301 7.93929C10.1145 8.45987 9.74932 8.90482 9.2808 9.21787C8.81229 9.53093 8.26146 9.69802 7.69799 9.69802C6.94239 9.69802 6.21773 9.39785 5.68344 8.86356C5.14915 8.32928 4.84899 7.60462 4.84899 6.84902ZM6.47699 6.84902C6.47699 7.09051 6.5486 7.32658 6.68276 7.52737C6.81693 7.72816 7.00762 7.88466 7.23073 7.97708C7.45384 8.06949 7.69934 8.09367 7.93619 8.04656C8.17304 7.99945 8.3906 7.88316 8.56136 7.7124C8.73212 7.54164 8.84841 7.32408 8.89552 7.08723C8.94263 6.85038 8.91845 6.60488 8.82604 6.38177C8.73363 6.15866 8.57713 5.96797 8.37633 5.8338C8.17554 5.69964 7.93948 5.62803 7.69799 5.62803C7.37416 5.62803 7.06359 5.75667 6.83461 5.98565C6.60563 6.21463 6.47699 6.52519 6.47699 6.84902ZM13.396 14.582V16.21H2V14.582C2 14.582 2 11.326 7.69799 11.326C13.396 11.326 13.396 14.582 13.396 14.582ZM11.768 14.582C11.654 13.9471 10.6854 12.954 7.69799 12.954C4.71061 12.954 3.68498 14.0203 3.628 14.582M13.3553 11.326C13.8542 11.7141 14.2621 12.2066 14.5504 12.7691C14.8386 13.3316 15.0003 13.9504 15.024 14.582V16.21H18.28V14.582C18.28 14.582 18.28 11.6272 13.3471 11.326H13.3553Z" fill="currentColor"/>
</svg>
