<svg width="18" height="19" viewBox="0 0 18 19" fill="none" xmlns="http://www.w3.org/2000/svg">
<g id="icon / history">
<mask id="mask0_504_1174" style="mask-type:alpha" maskUnits="userSpaceOnUse" x="0" y="0" width="18" height="19">
<rect id="Rectangle 18156" y="0.5" width="18" height="18" fill="#D9D9D9"/>
</mask>
<g mask="url(#mask0_504_1174)">
<g id="Group 291200">
<path id="Ellipse 428" d="M3.30039 10.2154C3.30039 9.7183 2.89745 9.31536 2.40039 9.31536C1.90333 9.31536 1.50039 9.7183 1.50039 10.2154H3.30039ZM15.0698 10.2154C15.0698 13.4654 12.4351 16.1001 9.18508 16.1001V17.9001C13.4292 17.9001 16.8698 14.4595 16.8698 10.2154H15.0698ZM9.18508 16.1001C5.93506 16.1001 3.30039 13.4654 3.30039 10.2154H1.50039C1.50039 14.4595 4.94095 17.9001 9.18508 17.9001V16.1001ZM9.18508 4.33066C12.4351 4.33066 15.0698 6.96533 15.0698 10.2154H16.8698C16.8698 5.97122 13.4292 2.53066 9.18508 2.53066V4.33066ZM5.18438 5.89977C6.23504 4.92524 7.63962 4.33066 9.18508 4.33066V2.53066C7.16798 2.53066 5.33066 3.309 3.9603 4.58006L5.18438 5.89977Z" fill="#171719"/>
<path id="Vector 1029" d="M5.22702 2.10842L4.21576 5.22867L7.38975 6.056" stroke="#171719" stroke-width="1.4" stroke-linecap="round" stroke-linejoin="round"/>
<path id="Vector 1030" d="M9 8V11H12" stroke="#171719" stroke-width="1.8" stroke-linecap="round" stroke-linejoin="round"/>
</g>
</g>
</g>
</svg>
