<svg viewBox="0 0 24 24" fill="none" xmlns="http://www.w3.org/2000/svg">
<path fill-rule="evenodd" clip-rule="evenodd" d="M11.3753 1.21913C11.7406 0.926956 12.2595 0.926956 12.6247 1.21913L22.6247 9.21913C23.056 9.56414 23.1259 10.1934 22.7809 10.6247C22.4359 11.056 21.8066 11.1259 21.3753 10.7809L20.5 10.0806V21.5C20.5 22.0523 20.0523 22.5 19.5 22.5H14.5L14 22.3662C13.7011 22.1933 13.5 21.8701 13.5 21.5V13.5H10.5V21.5C10.5 21.8701 10.2989 22.1933 10 22.3662L9.5 22.5H4.5C3.94772 22.5 3.5 22.0523 3.5 21.5V10.0807L2.62473 10.7809C2.19347 11.1259 1.56418 11.056 1.21917 10.6247C0.874158 10.1934 0.94408 9.56414 1.37534 9.21913L11.3753 1.21913ZM8.5 20.5V12.5C8.5 11.9477 8.94772 11.5 9.5 11.5H14.5C15.0523 11.5 15.5 11.9477 15.5 12.5V20.5H18.5V8.4806L12 3.28062L5.5 8.48065V20.5H8.5Z" fill="currentColor"/>
</svg>
