<svg width="138" height="138" viewBox="0 0 138 138" fill="none" xmlns="http://www.w3.org/2000/svg">
<g id="icon/cancel" clip-path="url(#clip0_696_737)">
<g id="icon/cancel_2">
<mask id="mask0_696_737" style="mask-type:alpha" maskUnits="userSpaceOnUse" x="0" y="0" width="138" height="138">
<rect id="Rectangle 18245" width="138" height="138" fill="#D9D9D9"/>
</mask>
<g mask="url(#mask0_696_737)">
<g id="Group 291307">
<g id="Group 291304">
<g id="icon">
<g id="Union">
<mask id="path-2-outside-1_696_737" maskUnits="userSpaceOnUse" x="15" y="55.582" width="106" height="60" fill="black">
<rect fill="white" x="15" y="55.582" width="106" height="60"/>
<path fill-rule="evenodd" clip-rule="evenodd" d="M19 64.582L38.7668 59.582H42.4731L67.9999 79.565L93.5268 59.582H97.2331L117 64.582V99.9435C117 106.571 111.627 111.943 105 111.943H68.0218H67.9781H31C24.3726 111.943 19 106.571 19 99.9435V64.582Z"/>
</mask>
<path fill-rule="evenodd" clip-rule="evenodd" d="M19 64.582L38.7668 59.582H42.4731L67.9999 79.565L93.5268 59.582H97.2331L117 64.582V99.9435C117 106.571 111.627 111.943 105 111.943H68.0218H67.9781H31C24.3726 111.943 19 106.571 19 99.9435V64.582Z" fill="url(#paint0_linear_696_737)"/>
<path d="M38.7668 59.582V56.4462H38.3764L37.9979 56.542L38.7668 59.582ZM19 64.582L18.231 61.542L15.8642 62.1407V64.582H19ZM42.4731 59.582L44.4061 57.1128L43.5545 56.4462H42.4731V59.582ZM67.9999 79.565L66.067 82.0342L67.9999 83.5473L69.9329 82.0342L67.9999 79.565ZM93.5268 59.582V56.4462H92.4454L91.5938 57.1128L93.5268 59.582ZM97.2331 59.582L98.002 56.542L97.6235 56.4462H97.2331V59.582ZM117 64.582H120.136V62.1407L117.769 61.542L117 64.582ZM37.9979 56.542L18.231 61.542L19.769 67.6221L39.5358 62.6221L37.9979 56.542ZM42.4731 56.4462H38.7668V62.7178H42.4731V56.4462ZM69.9329 77.0957L44.4061 57.1128L40.5402 62.0512L66.067 82.0342L69.9329 77.0957ZM69.9329 82.0342L95.4597 62.0512L91.5938 57.1128L66.067 77.0957L69.9329 82.0342ZM93.5268 62.7178H97.2331V56.4462H93.5268V62.7178ZM96.4641 62.6221L116.231 67.6221L117.769 61.542L98.002 56.542L96.4641 62.6221ZM113.864 64.582V99.9435H120.136V64.582H113.864ZM113.864 99.9435C113.864 104.839 109.895 108.808 105 108.808V115.079C113.359 115.079 120.136 108.303 120.136 99.9435H113.864ZM105 108.808H68.0218V115.079H105V108.808ZM68.0218 108.808H67.9781V115.079H68.0218V108.808ZM31 115.079H67.9781V108.808H31V115.079ZM15.8642 99.9435C15.8642 108.303 22.6407 115.079 31 115.079V108.808C26.1044 108.808 22.1358 104.839 22.1358 99.9435H15.8642ZM15.8642 64.582V99.9435H22.1358V64.582H15.8642Z" fill="#D3BAFF" mask="url(#path-2-outside-1_696_737)"/>
</g>
<path id="Line 15 (Stroke)" fill-rule="evenodd" clip-rule="evenodd" d="M19.7007 109.676L48.9914 65.6931L51.7324 67.1953L22.4417 111.179L19.7007 109.676Z" fill="#D3BAFF"/>
<path id="Line 16 (Stroke)" fill-rule="evenodd" clip-rule="evenodd" d="M116.195 109.681L86.9765 67.8122L84.2368 69.3164L113.455 111.185L116.195 109.681Z" fill="#D3BAFF"/>
</g>
<path id="Union_2" d="M117.636 62.6774C118.203 62.4259 118.568 61.8643 118.568 61.2444V50C118.568 43.6112 113.389 38.4321 107 38.4321H86.7353H49.2647H29C22.6112 38.4321 17.4321 43.6112 17.4321 50V61.2444C17.4321 61.8643 17.7973 62.4259 18.3638 62.6774L60.8711 81.5503C65.4101 83.5656 70.5899 83.5656 75.1289 81.5503L117.636 62.6774Z" fill="#6F3CC8" stroke="#D3BAFF" stroke-width="3.1358" stroke-linejoin="round"/>
</g>
<g id="Group 291305">
<circle id="Ellipse 437" cx="108" cy="38" r="18" fill="#AFAFAF"/>
<g id="Group 291302">
<path id="Vector 1052" d="M102 32L115 45" stroke="white" stroke-width="3"/>
<path id="Vector 1053" d="M102 32L115 45" stroke="white" stroke-width="3"/>
<path id="Vector 1054" d="M102 45L115 32" stroke="white" stroke-width="3"/>
</g>
</g>
</g>
</g>
</g>
</g>
<defs>
<linearGradient id="paint0_linear_696_737" x1="67.9999" y1="80.3498" x2="67.9999" y2="111.943" gradientUnits="userSpaceOnUse">
<stop stop-color="#6F3CC8"/>
<stop offset="1" stop-color="#563590"/>
</linearGradient>
<clipPath id="clip0_696_737">
<rect width="138" height="138" fill="white"/>
</clipPath>
</defs>
</svg>
