<svg width="72" height="72" viewBox="0 0 72 72" fill="none" xmlns="http://www.w3.org/2000/svg">
<g id="icon / invite">
<g id="icon">
<g id="Union">
<mask id="path-1-outside-1_504_1152" maskUnits="userSpaceOnUse" x="2" y="7.51953" width="68" height="43" fill="black">
<rect fill="white" x="2" y="7.51953" width="68" height="43"/>
<path fill-rule="evenodd" clip-rule="evenodd" d="M30.9738 12.2285C31.6783 10.6503 33.5789 9.51953 35.813 9.51953C38.047 9.51953 39.9476 10.6503 40.6521 12.2285H44.7217C46.7997 12.2285 48.7852 13.0877 50.2077 14.6024L67.6282 33.1524L54.5283 48.3529H17.0999L4 33.1524L21.4205 14.6024C22.843 13.0877 24.8286 12.2285 26.9065 12.2285H30.9738Z"/>
</mask>
<path fill-rule="evenodd" clip-rule="evenodd" d="M30.9738 12.2285C31.6783 10.6503 33.5789 9.51953 35.813 9.51953C38.047 9.51953 39.9476 10.6503 40.6521 12.2285H44.7217C46.7997 12.2285 48.7852 13.0877 50.2077 14.6024L67.6282 33.1524L54.5283 48.3529H17.0999L4 33.1524L21.4205 14.6024C22.843 13.0877 24.8286 12.2285 26.9065 12.2285H30.9738Z" fill="#6F3CC8"/>
<path d="M30.9738 12.2285V14.11C31.7162 14.11 32.3892 13.6734 32.6918 12.9955L30.9738 12.2285ZM40.6521 12.2285L38.9341 12.9955C39.2367 13.6734 39.9097 14.11 40.6521 14.11V12.2285ZM50.2077 14.6024L48.8362 15.8904V15.8904L50.2077 14.6024ZM67.6282 33.1524L69.0535 34.3807C69.6818 33.6516 69.6586 32.566 68.9997 31.8644L67.6282 33.1524ZM54.5283 48.3529V50.2344C55.0758 50.2344 55.5961 49.9959 55.9535 49.5812L54.5283 48.3529ZM17.0999 48.3529L15.6747 49.5812C16.0321 49.9959 16.5524 50.2344 17.0999 50.2344V48.3529ZM4 33.1524L2.62849 31.8644C1.96965 32.566 1.94646 33.6516 2.57476 34.3807L4 33.1524ZM21.4205 14.6024L20.049 13.3144L21.4205 14.6024ZM32.6918 12.9955C33.0267 12.2454 34.1415 11.401 35.813 11.401V7.63805C33.0163 7.63805 30.33 9.0551 29.2557 11.4616L32.6918 12.9955ZM35.813 11.401C37.4844 11.401 38.5992 12.2454 38.9341 12.9955L42.3702 11.4616C41.2959 9.0551 38.6096 7.63805 35.813 7.63805V11.401ZM40.6521 14.11H44.7217V10.347H40.6521V14.11ZM44.7217 14.11C46.2802 14.11 47.7693 14.7544 48.8362 15.8904L51.5792 13.3144C49.8011 11.421 47.3192 10.347 44.7217 10.347V14.11ZM48.8362 15.8904L66.2567 34.4404L68.9997 31.8644L51.5792 13.3144L48.8362 15.8904ZM66.203 31.9241L53.1031 47.1247L55.9535 49.5812L69.0535 34.3807L66.203 31.9241ZM54.5283 46.4715H17.0999V50.2344H54.5283V46.4715ZM18.5252 47.1247L5.42524 31.9241L2.57476 34.3807L15.6747 49.5812L18.5252 47.1247ZM5.37151 34.4404L22.792 15.8904L20.049 13.3144L2.62849 31.8644L5.37151 34.4404ZM22.792 15.8904C23.8589 14.7544 25.348 14.11 26.9065 14.11V10.347C24.3091 10.347 21.8272 11.421 20.049 13.3144L22.792 15.8904ZM26.9065 14.11H30.9738V10.347H26.9065V14.11Z" fill="#D3BAFF" mask="url(#path-1-outside-1_504_1152)"/>
</g>
<rect id="Rectangle 18109" x="9.77248" y="3.58889" width="52.0828" height="47.9777" rx="4.23333" fill="white" stroke="#6F3CC8" stroke-width="2.82222"/>
<g id="Union_2">
<mask id="path-4-outside-2_504_1152" maskUnits="userSpaceOnUse" x="2" y="32.2539" width="68" height="38" fill="black">
<rect fill="white" x="2" y="32.2539" width="68" height="38"/>
<path fill-rule="evenodd" clip-rule="evenodd" d="M4 35.2539L16.8283 41.1241L19.2336 48.8006H35.8141V68.2174H9.64444C6.5271 68.2174 4 65.6903 4 62.573V35.2539ZM67.6289 35.2539L54.8006 41.1241L52.3953 48.8006H35.8148V68.2174H61.9845C65.1018 68.2174 67.6289 65.6903 67.6289 62.573V35.2539Z"/>
</mask>
<path fill-rule="evenodd" clip-rule="evenodd" d="M4 35.2539L16.8283 41.1241L19.2336 48.8006H35.8141V68.2174H9.64444C6.5271 68.2174 4 65.6903 4 62.573V35.2539ZM67.6289 35.2539L54.8006 41.1241L52.3953 48.8006H35.8148V68.2174H61.9845C65.1018 68.2174 67.6289 65.6903 67.6289 62.573V35.2539Z" fill="url(#paint0_linear_504_1152)"/>
<path d="M16.8283 41.1241L18.6237 40.5616L18.3731 39.7619L17.6112 39.4133L16.8283 41.1241ZM4 35.2539L4.78289 33.543L2.11852 32.3238V35.2539H4ZM19.2336 48.8006L17.4382 49.3631L17.8514 50.682H19.2336V48.8006ZM35.8141 48.8006H37.6956V46.9191H35.8141V48.8006ZM35.8141 68.2174V70.0989H37.6956V68.2174H35.8141ZM54.8006 41.1241L54.0177 39.4133L53.2558 39.7619L53.0052 40.5616L54.8006 41.1241ZM67.6289 35.2539H69.5104V32.3238L66.846 33.543L67.6289 35.2539ZM52.3953 48.8006V50.682H53.7775L54.1907 49.3631L52.3953 48.8006ZM35.8148 48.8006V46.9191H33.9333V48.8006H35.8148ZM35.8148 68.2174H33.9333V70.0989H35.8148V68.2174ZM17.6112 39.4133L4.78289 33.543L3.21711 36.9648L16.0454 42.835L17.6112 39.4133ZM21.029 48.238L18.6237 40.5616L15.0329 41.6867L17.4382 49.3631L21.029 48.238ZM35.8141 46.9191H19.2336V50.682H35.8141V46.9191ZM37.6956 68.2174V48.8006H33.9326V68.2174H37.6956ZM9.64444 70.0989H35.8141V66.336H9.64444V70.0989ZM2.11852 62.573C2.11852 66.7295 5.48798 70.0989 9.64444 70.0989V66.336C7.56621 66.336 5.88148 64.6512 5.88148 62.573H2.11852ZM2.11852 35.2539V62.573H5.88148V35.2539H2.11852ZM55.5835 42.835L68.4118 36.9648L66.846 33.543L54.0177 39.4133L55.5835 42.835ZM54.1907 49.3631L56.596 41.6867L53.0052 40.5616L50.5999 48.238L54.1907 49.3631ZM35.8148 50.682H52.3953V46.9191H35.8148V50.682ZM37.6963 68.2174V48.8006H33.9333V68.2174H37.6963ZM61.9845 66.336H35.8148V70.0989H61.9845V66.336ZM65.7474 62.573C65.7474 64.6512 64.0627 66.336 61.9845 66.336V70.0989C66.1409 70.0989 69.5104 66.7295 69.5104 62.573H65.7474ZM65.7474 35.2539V62.573H69.5104V35.2539H65.7474Z" fill="#D3BAFF" mask="url(#path-4-outside-2_504_1152)"/>
</g>
<path id="Line 15 (Stroke)" fill-rule="evenodd" clip-rule="evenodd" d="M4.6544 66.8566L19.3858 46.7406L21.1602 47.6484L6.4288 67.7644L4.6544 66.8566Z" fill="#D3BAFF"/>
<path id="Line 16 (Stroke)" fill-rule="evenodd" clip-rule="evenodd" d="M67.2763 66.8591L51.8291 46.8929L50.0547 47.8008L65.5019 67.767L67.2763 66.8591Z" fill="#D3BAFF"/>
<rect id="Rectangle 18110" x="16.3145" y="10.4199" width="13.3414" height="2.70933" fill="#D3BAFF"/>
<rect id="Rectangle 18111" x="16.3145" y="18.5469" width="40.0242" height="2.70933" fill="#D3BAFF"/>
<rect id="Rectangle 18112" x="16.3145" y="23.0625" width="40.0242" height="2.70933" fill="#D3BAFF"/>
<rect id="Rectangle 18113" x="16.3145" y="27.5801" width="40.0242" height="2.70933" fill="#D3BAFF"/>
<rect id="Rectangle 18114" x="46.0762" y="33.9023" width="10.2626" height="2.70933" fill="#D3BAFF"/>
</g>
</g>
<defs>
<linearGradient id="paint0_linear_504_1152" x1="35.8145" y1="48.328" x2="35.8145" y2="68.2174" gradientUnits="userSpaceOnUse">
<stop stop-color="#6F3CC8"/>
<stop offset="1" stop-color="#563590"/>
</linearGradient>
</defs>
</svg>
