<svg width="30" height="30" viewBox="0 0 30 30" fill="none" xmlns="http://www.w3.org/2000/svg">
<g id="humbleicons:link">
<g id="Vector">
<path fill-rule="evenodd" clip-rule="evenodd" d="M15.8841 9.63314L17.759 7.75825C18.3535 7.16402 19.1597 6.83008 20.0002 6.83008C20.8407 6.83008 21.647 7.16409 22.2415 7.75825C22.8356 8.3527 23.1694 9.15877 23.1694 9.99925C23.1694 10.8398 22.8356 11.6459 22.2413 12.2404L18.4913 15.9904C17.8969 16.5846 17.0908 16.9184 16.2502 16.9184C15.4096 16.9184 14.6035 16.5846 14.009 15.9903C13.5208 15.5022 12.7293 15.5023 12.2412 15.9905C11.7531 16.4787 11.7532 17.2702 12.2415 17.7583C13.3048 18.8213 14.7467 19.4184 16.2502 19.4184C17.7537 19.4184 19.1958 18.8211 20.2591 17.7581L24.0092 14.008C25.0722 12.9447 25.6694 11.5028 25.6694 9.99925C25.6694 8.49573 25.072 7.05354 24.009 5.99025C22.9457 4.92725 21.5037 4.33008 20.0002 4.33008C18.4967 4.33008 17.0546 4.92736 15.9913 5.99037L14.1163 7.86537C13.6282 8.35353 13.6282 9.14498 14.1163 9.63314C14.6045 10.1213 15.396 10.1213 15.8841 9.63314Z" fill="white"/>
<path fill-rule="evenodd" clip-rule="evenodd" d="M12.9909 20.4462L11.116 22.3211C10.5215 22.9153 9.71528 23.2493 8.87474 23.2493C8.03426 23.2493 7.22795 22.9152 6.63351 22.3211C6.03934 21.7266 5.70557 20.9206 5.70557 20.0801C5.70557 19.2395 6.03939 18.4334 6.63363 17.839L10.3836 14.089C10.9781 13.4947 11.7842 13.1609 12.6247 13.1609C13.4653 13.1609 14.2715 13.4948 14.866 14.0891C15.3542 14.5772 16.1457 14.5771 16.6337 14.0888C17.1218 13.6006 17.1217 12.8092 16.6335 12.3211C15.5702 11.2581 14.1283 10.6609 12.6247 10.6609C11.1212 10.6609 9.67915 11.2582 8.61586 12.3212L4.86574 16.0713C3.80274 17.1346 3.20557 18.5766 3.20557 20.0801C3.20557 21.5836 3.80297 23.0258 4.86598 24.0891C5.92926 25.1521 7.37122 25.7493 8.87474 25.7493C10.3783 25.7493 11.8203 25.152 12.8836 24.089L14.7586 22.214C15.2468 21.7258 15.2468 20.9343 14.7586 20.4462C14.2705 19.958 13.479 19.958 12.9909 20.4462Z" fill="white"/>
</g>
</g>
</svg>
