<svg width="20" height="20" viewBox="0 0 20 20" fill="none" xmlns="http://www.w3.org/2000/svg">
<path d="M9.668 2C7.89954 2 6.2035 2.70252 4.95301 3.95301C3.70252 5.2035 3 6.89954 3 8.668C3 10.245 3.33507 11.2769 4.25025 12.4187L9.668 18.67L15.0858 12.4187C16.0009 11.2769 16.336 10.245 16.336 8.668C16.336 6.89954 15.6335 5.2035 14.383 3.95301C13.1325 2.70252 11.4365 2 9.668 2Z" fill="#C9CDD2"/>
<path d="M12.4603 9.26644L9.66811 12.0036L6.87172 9.25643C6.70108 9.08966 6.56559 8.8904 6.47324 8.6704C6.38089 8.4504 6.33355 8.21413 6.33401 7.97554C6.33448 7.73694 6.38274 7.50086 6.47596 7.28123C6.56917 7.06159 6.70544 6.86286 6.87672 6.69676C7.22607 6.35733 7.69424 6.16787 8.18133 6.16881C8.66842 6.16974 9.13586 6.36099 9.48391 6.70176L9.66978 6.88513L9.85648 6.70176C10.2059 6.36208 10.6742 6.17247 11.1615 6.1734C11.6488 6.17434 12.1164 6.36575 12.4645 6.70676C12.6352 6.87347 12.7707 7.07269 12.8632 7.29266C12.9556 7.51263 13.003 7.74888 13.0026 7.98748C13.0022 8.22607 12.954 8.46217 12.8609 8.68184C12.7678 8.9015 12.6316 9.10028 12.4603 9.26644Z" fill="white"/>
</svg>
