<svg viewBox="0 0 25 24" fill="none" xmlns="http://www.w3.org/2000/svg">
<path d="M16.5 19V22H2.5V12H6.5V8C6.5 6.33333 7.08333 4.91667 8.25 3.75C9.41667 2.58333 10.8333 2 12.5 2H16.5C18.1667 2 19.5833 2.58333 20.75 3.75C21.9167 4.91667 22.5 6.33333 22.5 8V22H20.5V19H16.5ZM16.5 17H20.5V8C20.5 6.9 20.1083 5.95833 19.325 5.175C18.5417 4.39167 17.6 4 16.5 4H12.5C11.4 4 10.4583 4.39167 9.675 5.175C8.89167 5.95833 8.5 6.9 8.5 8V12H16.5V17ZM9.5 16.85L14.5 14H4.5L9.5 16.85ZM9.5 18.6L4.5 15.75V20H14.5V15.75L9.5 18.6ZM10.5 10V8H18.5V10H10.5Z" fill="currentColor"/>
</svg>
