<svg viewBox="0 0 20 20" fill="none" xmlns="http://www.w3.org/2000/svg">
<path fill-rule="evenodd" clip-rule="evenodd" d="M4.9974 3.9974C6.27631 2.71849 8.01089 2 9.81955 2C11.6282 2 13.3628 2.71849 14.6417 3.9974C15.9206 5.27631 16.6391 7.01089 16.6391 8.81955C16.6391 9.58986 16.5574 10.2684 16.3443 10.9112C16.1301 11.5573 15.7958 12.1295 15.336 12.7032C15.33 12.7108 15.3237 12.7182 15.3174 12.7256L10.3922 18.4085C10.2482 18.5746 10.0393 18.67 9.81955 18.67C9.59979 18.67 9.39086 18.5746 9.24694 18.4085L4.32171 12.7256C4.31535 12.7182 4.30913 12.7108 4.30305 12.7032C3.8433 12.1295 3.50896 11.5573 3.29479 10.9112C3.08173 10.2684 3 9.58986 3 8.81955C3 7.01089 3.71849 5.27631 4.9974 3.9974ZM9.81955 3.51545C8.41281 3.51545 7.0637 4.07428 6.06899 5.06899C5.07428 6.0637 4.51545 7.41281 4.51545 8.81955C4.51545 9.48285 4.58603 9.99013 4.73327 10.4343C4.87823 10.8717 5.10963 11.2844 5.47672 11.7444L9.81955 16.7553L14.1624 11.7444C14.5295 11.2844 14.7609 10.8717 14.9058 10.4343C15.0531 9.99013 15.1236 9.48285 15.1236 8.81955C15.1236 7.41281 14.5648 6.0637 13.5701 5.06899C12.5754 4.07428 11.2263 3.51545 9.81955 3.51545Z" fill="currentColor"/>
<path d="M12.358 9.36239L9.81963 11.8508L7.27746 9.3533C7.12234 9.20169 6.99917 9.02054 6.91521 8.82054C6.83125 8.62055 6.78822 8.40576 6.78864 8.18885C6.78906 7.97195 6.83294 7.75732 6.91768 7.55766C7.00241 7.35799 7.12629 7.17732 7.28201 7.02632C7.5996 6.71775 8.02521 6.54552 8.46802 6.54637C8.91083 6.54722 9.33577 6.72108 9.65218 7.03087L9.82115 7.19757L9.99088 7.03087C10.3085 6.72207 10.7343 6.54969 11.1773 6.55054C11.6203 6.55139 12.0454 6.7254 12.3618 7.03541C12.517 7.18697 12.6402 7.36808 12.7242 7.56805C12.8083 7.76802 12.8514 7.9828 12.851 8.1997C12.8507 8.41661 12.8069 8.63124 12.7222 8.83094C12.6375 9.03063 12.5137 9.21134 12.358 9.36239Z" fill="currentColor"/>
</svg>
