<svg width="20" height="20" viewBox="0 0 20 20" fill="none" xmlns="http://www.w3.org/2000/svg">
<path d="M14.6596 15.6596C13.3517 16.969 11.6302 17.7844 9.78843 17.9669C7.94668 18.1494 6.09864 17.6876 4.55916 16.6604C3.01967 15.6331 1.88399 14.1038 1.34561 12.3331C0.807221 10.5623 0.899438 8.65972 1.60655 6.94937C2.31366 5.23901 3.59191 3.82673 5.22352 2.95314C6.85514 2.07956 8.73918 1.79871 10.5546 2.15845C12.3701 2.5182 14.0047 3.49627 15.1799 4.92604C16.3551 6.35581 16.9982 8.14882 16.9996 9.99958H14.9996C15.0009 8.61138 14.5207 7.26571 13.6409 6.19187C12.7612 5.11804 11.5363 4.38248 10.175 4.11054C8.81368 3.83861 7.4002 4.04712 6.1754 4.70056C4.95061 5.35399 3.99029 6.41191 3.45809 7.69403C2.92588 8.97616 2.85473 10.4032 3.25674 11.7319C3.65876 13.0606 4.50907 14.2088 5.66279 14.9808C6.8165 15.7529 8.20222 16.101 9.58383 15.9658C10.9654 15.8306 12.2574 15.2206 13.2396 14.2396L14.6596 15.6596ZM11.9996 9.99958H19.9996L15.9996 13.9996L11.9996 9.99958Z" fill="#6F3CC8"/>
</svg>
