<svg viewBox="0 0 25 24" fill="none" xmlns="http://www.w3.org/2000/svg">
<path d="M20.65 12.6599C20.4897 12.4774 20.4013 12.2428 20.4013 11.9999C20.4013 11.757 20.4897 11.5224 20.65 11.3399L21.93 9.89989C22.0711 9.74256 22.1586 9.5446 22.1802 9.3344C22.2018 9.12421 22.1562 8.91258 22.05 8.72989L20.05 5.2699C19.9449 5.08742 19.7849 4.94277 19.5928 4.85658C19.4006 4.77039 19.1862 4.74705 18.98 4.7899L17.1 5.1699C16.8608 5.21932 16.6118 5.17948 16.3999 5.0579C16.188 4.93631 16.028 4.74138 15.95 4.5099L15.34 2.6799C15.2729 2.48127 15.1451 2.30876 14.9746 2.18674C14.8042 2.06471 14.5997 1.99935 14.39 1.9999H10.39C10.172 1.98851 9.95615 2.04882 9.77558 2.17161C9.59501 2.2944 9.4596 2.47291 9.39002 2.6799L8.83002 4.5099C8.75202 4.74138 8.59199 4.93631 8.38013 5.0579C8.16827 5.17948 7.91923 5.21932 7.68002 5.1699L5.75002 4.7899C5.55457 4.76228 5.35532 4.79312 5.17737 4.87853C4.99941 4.96395 4.85072 5.10012 4.75002 5.2699L2.75002 8.72989C2.64118 8.91054 2.59224 9.12098 2.6102 9.33112C2.62816 9.54126 2.7121 9.74034 2.85002 9.89989L4.12002 11.3399C4.28034 11.5224 4.36875 11.757 4.36875 11.9999C4.36875 12.2428 4.28034 12.4774 4.12002 12.6599L2.85002 14.0999C2.7121 14.2595 2.62816 14.4585 2.6102 14.6687C2.59224 14.8788 2.64118 15.0892 2.75002 15.2699L4.75002 18.7299C4.85512 18.9124 5.01514 19.057 5.20727 19.1432C5.3994 19.2294 5.61384 19.2527 5.82002 19.2099L7.70002 18.8299C7.93923 18.7805 8.18827 18.8203 8.40013 18.9419C8.61199 19.0635 8.77202 19.2584 8.85002 19.4899L9.46002 21.3199C9.5296 21.5269 9.66501 21.7054 9.84558 21.8282C10.0262 21.951 10.242 22.0113 10.46 21.9999H14.46C14.6697 22.0004 14.8742 21.9351 15.0446 21.8131C15.2151 21.691 15.3429 21.5185 15.41 21.3199L16.02 19.4899C16.098 19.2584 16.258 19.0635 16.4699 18.9419C16.6818 18.8203 16.9308 18.7805 17.17 18.8299L19.05 19.2099C19.2562 19.2527 19.4706 19.2294 19.6628 19.1432C19.8549 19.057 20.0149 18.9124 20.12 18.7299L22.12 15.2699C22.2262 15.0872 22.2718 14.8756 22.2502 14.6654C22.2286 14.4552 22.1411 14.2572 22 14.0999L20.65 12.6599ZM19.16 13.9999L19.96 14.8999L18.68 17.1199L17.5 16.8799C16.7798 16.7327 16.0306 16.855 15.3946 17.2237C14.7586 17.5924 14.2802 18.1817 14.05 18.8799L13.67 19.9999H11.11L10.75 18.8599C10.5199 18.1617 10.0414 17.5724 9.40542 17.2037C8.76945 16.835 8.02024 16.7127 7.30002 16.8599L6.12002 17.0999L4.82002 14.8899L5.62002 13.9899C6.11197 13.4399 6.38395 12.7278 6.38395 11.9899C6.38395 11.252 6.11197 10.5399 5.62002 9.98989L4.82002 9.0899L6.10002 6.88989L7.28002 7.1299C8.00024 7.27712 8.74945 7.15478 9.38542 6.78609C10.0214 6.41741 10.4999 5.82805 10.73 5.1299L11.11 3.9999H13.67L14.05 5.13989C14.2802 5.83805 14.7586 6.42741 15.3946 6.79609C16.0306 7.16478 16.7798 7.28712 17.5 7.13989L18.68 6.8999L19.96 9.11989L19.16 10.0199C18.6736 10.5687 18.405 11.2766 18.405 12.0099C18.405 12.7432 18.6736 13.4511 19.16 13.9999ZM12.39 7.9999C11.5989 7.9999 10.8255 8.23449 10.1677 8.67402C9.50994 9.11354 8.99725 9.73826 8.6945 10.4692C8.39175 11.2001 8.31254 12.0043 8.46688 12.7803C8.62122 13.5562 9.00218 14.2689 9.56159 14.8283C10.121 15.3877 10.8337 15.7687 11.6097 15.923C12.3856 16.0774 13.1898 15.9982 13.9208 15.6954C14.6517 15.3927 15.2764 14.88 15.7159 14.2222C16.1554 13.5644 16.39 12.791 16.39 11.9999C16.39 10.939 15.9686 9.92161 15.2184 9.17147C14.4683 8.42132 13.4509 7.9999 12.39 7.9999ZM12.39 13.9999C11.9945 13.9999 11.6078 13.8826 11.2789 13.6628C10.95 13.4431 10.6936 13.1307 10.5423 12.7653C10.3909 12.3998 10.3513 11.9977 10.4284 11.6097C10.5056 11.2218 10.6961 10.8654 10.9758 10.5857C11.2555 10.306 11.6119 10.1155 11.9998 10.0383C12.3878 9.96115 12.7899 10.0008 13.1554 10.1521C13.5208 10.3035 13.8332 10.5599 14.053 10.8888C14.2727 11.2177 14.39 11.6043 14.39 11.9999C14.39 12.5303 14.1793 13.039 13.8042 13.4141C13.4292 13.7892 12.9205 13.9999 12.39 13.9999Z" fill="currentColor"/>
</svg>
