<svg width="20" height="20" viewBox="0 0 20 20" fill="none" xmlns="http://www.w3.org/2000/svg">
<path d="M10.7014 17.4694C10.3122 17.8529 9.68716 17.8529 9.29789 17.4694L7.58022 15.7774H5.22188C4.6696 15.7774 4.22188 15.3297 4.22188 14.7774V12.419L2.52985 10.7014C2.14638 10.3121 2.14638 9.6871 2.52985 9.29783L4.22188 7.58016V5.22182C4.22188 4.66954 4.6696 4.22182 5.22188 4.22182H7.58022L9.29789 2.52978C9.68716 2.14632 10.3122 2.14632 10.7014 2.52978L12.4191 4.22182H14.7774C15.3297 4.22182 15.7774 4.66954 15.7774 5.22182V7.58016L17.4695 9.29783C17.8529 9.6871 17.8529 10.3121 17.4695 10.7014L15.7774 12.419V14.7774C15.7774 15.3297 15.3297 15.7774 14.7774 15.7774H12.4191L10.7014 17.4694ZM9.99966 16.1385L11.8052 14.3329H14.333V11.8052L16.1386 9.9996L14.333 8.19405V5.66627H11.8052L9.99966 3.86071L8.19411 5.66627H5.66633V8.19405L3.86077 9.9996L5.66633 11.8052V14.3329H8.19411L9.99966 16.1385ZM7.99509 12.606C7.95488 12.7785 8.1422 12.9143 8.29362 12.8224L9.89591 11.8501C9.95967 11.8114 10.0397 11.8114 10.1034 11.8501L11.7057 12.8224C11.8571 12.9143 12.0444 12.7785 12.0042 12.606L11.5799 10.7853C11.563 10.7129 11.5876 10.6372 11.6438 10.5886L13.0692 9.35504C13.2034 9.23895 13.1312 9.01865 12.9544 9.00445L11.0778 8.85378C11.0033 8.8478 10.9384 8.80082 10.9095 8.73197L10.184 7.00732C10.1153 6.84405 9.88399 6.84405 9.81531 7.00732L9.08986 8.73197C9.0609 8.80082 8.99598 8.8478 8.92152 8.85378L7.04495 9.00445C6.86812 9.01865 6.79594 9.23895 6.93008 9.35504L8.35557 10.5886C8.41172 10.6372 8.43633 10.7129 8.41947 10.7853L7.99509 12.606Z" fill="#454C53"/>
</svg>
