<svg viewBox="0 0 19 19" fill="none" xmlns="http://www.w3.org/2000/svg">
<path d="M9.49992 17.4163C5.12754 17.4163 1.58325 13.872 1.58325 9.49967C1.58325 5.1273 5.12754 1.58301 9.49992 1.58301C13.8723 1.58301 17.4166 5.1273 17.4166 9.49967C17.4166 13.872 13.8723 17.4163 9.49992 17.4163ZM9.49992 15.833C11.1796 15.833 12.7905 15.1657 13.9783 13.978C15.166 12.7903 15.8333 11.1794 15.8333 9.49967C15.8333 7.81997 15.166 6.20906 13.9783 5.02133C12.7905 3.8336 11.1796 3.16634 9.49992 3.16634C7.82021 3.16634 6.20931 3.8336 5.02158 5.02133C3.83385 6.20906 3.16659 7.81997 3.16659 9.49967C3.16659 11.1794 3.83385 12.7903 5.02158 13.978C6.20931 15.1657 7.82021 15.833 9.49992 15.833ZM10.2916 9.49967H13.4583V11.083H8.70825V5.54134H10.2916V9.49967Z" fill="currentColor"/>
</svg>
