<svg  viewBox="0 0 20 20" fill="none" xmlns="http://www.w3.org/2000/svg">
<path d="M10 18.75C14.8325 18.75 18.75 14.8325 18.75 10C18.75 5.16751 14.8325 1.25 10 1.25C5.16751 1.25 1.25 5.16751 1.25 10C1.25 14.8325 5.16751 18.75 10 18.75Z" fill="#FFC84D"/>
<path d="M12.53 11.63C14.4359 11.63 15.981 10.0849 15.981 8.179C15.981 6.27307 14.4359 4.728 12.53 4.728C10.6241 4.728 9.079 6.27307 9.079 8.179C9.079 10.0849 10.6241 11.63 12.53 11.63Z" fill="white"/>
<path d="M13.995 5.69C13.5655 5.4365 13.065 5.2915 12.53 5.2915C10.935 5.2915 9.6425 6.5845 9.6425 8.179C9.6425 9.108 10.0815 9.9345 10.763 10.463C11.2515 10.8415 11.8645 11.067 12.5305 11.067C14.1255 11.067 15.418 9.774 15.418 8.1795C15.418 7.1195 14.8465 6.192 13.995 5.69ZM11.468 9.5245C11.105 9.5245 10.777 9.3755 10.5405 9.136L11.6785 6.9375C12.298 7.0385 12.772 7.5725 12.772 8.2205C12.772 8.9405 12.188 9.5245 11.468 9.5245Z" fill="#E0E0E0"/>
<path d="M7.124 6.634C6.606 6.634 6.186 7.054 6.186 7.572C6.186 8.09 6.606 8.51 7.124 8.51C7.642 8.51 8.062 8.09 8.062 7.572C8.062 7.054 7.642 6.634 7.124 6.634Z" fill="black"/>
<path d="M10.5405 9.136L11.6785 6.9375C11.6095 6.9265 11.54 6.9165 11.468 6.9165C10.748 6.9165 10.164 7.5005 10.164 8.2205C10.164 8.5775 10.308 8.9005 10.5405 9.136Z" fill="#6B6B6B"/>
<path d="M11.6785 6.9375L10.5405 9.136C10.777 9.3755 11.105 9.5245 11.468 9.5245C12.188 9.5245 12.772 8.9405 12.772 8.2205C12.772 7.5725 12.298 7.0385 11.6785 6.9375Z" fill="black"/>
<path d="M11.468 6.9165C11.54 6.9165 11.6095 6.9265 11.6785 6.9375L12.53 5.2915C10.935 5.2915 9.6425 6.5845 9.6425 8.179C9.6425 8.8005 9.8385 9.376 10.1725 9.847L10.5405 9.136C10.308 8.9005 10.164 8.5775 10.164 8.2205C10.164 7.5005 10.748 6.9165 11.468 6.9165Z" fill="#EDEDED"/>
<path d="M8.5715 12.8265C9.277 12.888 9.8015 13.0685 10.133 13.2205C10.2755 13.2855 10.416 13.1275 10.3355 12.993C10.076 12.56 9.5605 11.9685 8.6535 11.889C7.7465 11.8095 7.136 12.3025 6.805 12.684C6.7025 12.8025 6.8135 12.983 6.965 12.9435C7.318 12.8515 7.8655 12.7645 8.5715 12.8265Z" fill="#FF6D00"/>
<path d="M6.872 5.3795C7.452 5.43 7.7755 5.5925 8.0495 5.743C8.2075 5.8295 8.345 5.713 8.2775 5.5325C8.1325 5.1425 7.6975 4.699 6.9375 4.6325C6.1775 4.566 5.672 4.927 5.4615 5.286C5.364 5.452 5.479 5.5905 5.6495 5.5325C5.9455 5.4325 6.292 5.329 6.872 5.3795Z" fill="black"/>
<path d="M11.849 3.8795C11.269 3.93 10.9455 4.0925 10.6715 4.243C10.5135 4.3295 10.376 4.213 10.4435 4.0325C10.5885 3.6425 11.0235 3.199 11.7835 3.1325C12.5435 3.066 13.049 3.427 13.2595 3.786C13.357 3.952 13.242 4.0905 13.0715 4.0325C12.7755 3.9325 12.429 3.829 11.849 3.8795Z" fill="black"/>
</svg>
