<svg width="180" height="180" viewBox="0 0 180 180" fill="none" xmlns="http://www.w3.org/2000/svg">
<g clip-path="url(#clip0_483_521)">
<rect width="180" height="180" rx="46" fill="#6F3CC8"/>
<g filter="url(#filter0_i_483_521)">
<path d="M128.166 0H180.001V89.5511V142.5H63.0008V109.892C63.0008 107.107 62.6 101.22 63.0409 95.4214C63.7694 85.8436 70.3771 78.1122 76.0899 70.3903L128.166 0Z" fill="url(#paint0_linear_483_521)"/>
</g>
<g filter="url(#filter1_di_483_521)">
<path d="M47.3434 62.6173C47.9125 61.1276 50.0875 61.1276 50.6566 62.6173L53.9372 71.2061C54.1161 71.6745 54.4973 72.0438 54.9808 72.2171L63.8466 75.3952C65.3845 75.9465 65.3845 78.0535 63.8466 78.6048L54.9808 81.7829C54.4973 81.9562 54.1161 82.3255 53.9372 82.7939L50.6566 91.3827C50.0875 92.8724 47.9125 92.8724 47.3434 91.3827L44.0628 82.7939C43.8839 82.3255 43.5027 81.9562 43.0192 81.7829L34.1534 78.6048C32.6155 78.0535 32.6155 75.9465 34.1534 75.3952L43.0192 72.2171C43.5027 72.0438 43.8839 71.6745 44.0628 71.2061L47.3434 62.6173Z" fill="url(#paint1_linear_483_521)"/>
</g>
<path fill-rule="evenodd" clip-rule="evenodd" d="M53.5841 71.3327L50.3035 62.7439C49.8557 61.5716 48.1443 61.5716 47.6965 62.7439L44.4158 71.3327C44.1988 71.9009 43.7364 72.3489 43.1498 72.5591L34.284 75.7372C33.074 76.171 33.074 77.829 34.284 78.2628L43.1498 81.4409C43.7364 81.6511 44.1988 82.0991 44.4158 82.6673L47.6965 91.2561C48.1443 92.4284 49.8557 92.4284 50.3035 91.2561L53.5841 82.6673C53.8012 82.0991 54.2636 81.6511 54.8502 81.4409L63.716 78.2628C64.926 77.829 64.926 76.171 63.716 75.7372L54.8502 72.5591C54.2636 72.3489 53.8012 71.9009 53.5841 71.3327ZM50.6566 62.6173C50.0875 61.1276 47.9125 61.1276 47.3434 62.6173L44.0628 71.2061C43.8839 71.6745 43.5027 72.0438 43.0192 72.2171L34.1534 75.3952C32.6155 75.9465 32.6155 78.0535 34.1534 78.6048L43.0192 81.7829C43.5027 81.9562 43.8839 82.3255 44.0628 82.7939L47.3434 91.3827C47.9125 92.8724 50.0875 92.8724 50.6566 91.3827L53.9372 82.7939C54.1161 82.3255 54.4973 81.9562 54.9808 81.7829L63.8466 78.6048C65.3845 78.0535 65.3845 75.9465 63.8466 75.3952L54.9808 72.2171C54.4973 72.0438 54.1161 71.6745 53.9372 71.2061L50.6566 62.6173Z" fill="url(#paint2_linear_483_521)" fill-opacity="0.2"/>
<path fill-rule="evenodd" clip-rule="evenodd" d="M53.5841 71.3327L50.3035 62.7439C49.8557 61.5716 48.1443 61.5716 47.6965 62.7439L44.4158 71.3327C44.1988 71.9009 43.7364 72.3489 43.1498 72.5591L34.284 75.7372C33.074 76.171 33.074 77.829 34.284 78.2628L43.1498 81.4409C43.7364 81.6511 44.1988 82.0991 44.4158 82.6673L47.6965 91.2561C48.1443 92.4284 49.8557 92.4284 50.3035 91.2561L53.5841 82.6673C53.8012 82.0991 54.2636 81.6511 54.8502 81.4409L63.716 78.2628C64.926 77.829 64.926 76.171 63.716 75.7372L54.8502 72.5591C54.2636 72.3489 53.8012 71.9009 53.5841 71.3327ZM50.6566 62.6173C50.0875 61.1276 47.9125 61.1276 47.3434 62.6173L44.0628 71.2061C43.8839 71.6745 43.5027 72.0438 43.0192 72.2171L34.1534 75.3952C32.6155 75.9465 32.6155 78.0535 34.1534 78.6048L43.0192 81.7829C43.5027 81.9562 43.8839 82.3255 44.0628 82.7939L47.3434 91.3827C47.9125 92.8724 50.0875 92.8724 50.6566 91.3827L53.9372 82.7939C54.1161 82.3255 54.4973 81.9562 54.9808 81.7829L63.8466 78.6048C65.3845 78.0535 65.3845 75.9465 63.8466 75.3952L54.9808 72.2171C54.4973 72.0438 54.1161 71.6745 53.9372 71.2061L50.6566 62.6173Z" fill="url(#paint3_linear_483_521)" fill-opacity="0.2"/>
<g filter="url(#filter2_i_483_521)">
<path d="M61.0453 40.5128C61.545 39.1624 63.455 39.1624 63.9547 40.5128L65.3365 44.2471C65.4936 44.6717 65.8283 45.0064 66.2529 45.1635L69.9872 46.5453C71.3376 47.045 71.3376 48.955 69.9872 49.4547L66.2529 50.8365C65.8283 50.9936 65.4936 51.3283 65.3365 51.7529L63.9547 55.4872C63.455 56.8376 61.545 56.8376 61.0453 55.4872L59.6635 51.7529C59.5064 51.3283 59.1717 50.9936 58.7471 50.8365L55.0128 49.4547C53.6624 48.955 53.6624 47.045 55.0128 46.5453L58.7471 45.1635C59.1717 45.0064 59.5064 44.6717 59.6635 44.2471L61.0453 40.5128Z" fill="url(#paint4_linear_483_521)"/>
</g>
<path fill-rule="evenodd" clip-rule="evenodd" d="M65.0708 44.3454L63.689 40.6111C63.2805 39.5074 61.7195 39.5074 61.311 40.6111L59.9292 44.3454C59.7434 44.8475 59.3475 45.2434 58.8454 45.4292L55.1111 46.811C54.0074 47.2195 54.0074 48.7805 55.1111 49.189L58.8454 50.5708C59.3475 50.7566 59.7434 51.1525 59.9292 51.6546L61.311 55.3889C61.7195 56.4926 63.2805 56.4926 63.689 55.3889L65.0708 51.6546C65.2566 51.1525 65.6525 50.7566 66.1546 50.5708L69.8889 49.189C70.9926 48.7805 70.9926 47.2195 69.8889 46.811L66.1546 45.4292C65.6525 45.2434 65.2566 44.8475 65.0708 44.3454ZM63.9547 40.5128C63.455 39.1624 61.545 39.1624 61.0453 40.5128L59.6635 44.2471C59.5064 44.6717 59.1717 45.0064 58.7471 45.1635L55.0128 46.5453C53.6624 47.045 53.6624 48.955 55.0128 49.4547L58.7471 50.8365C59.1717 50.9936 59.5064 51.3283 59.6635 51.7529L61.0453 55.4872C61.545 56.8376 63.455 56.8376 63.9547 55.4872L65.3365 51.7529C65.4936 51.3283 65.8283 50.9936 66.2529 50.8365L69.9872 49.4547C71.3376 48.955 71.3376 47.045 69.9872 46.5453L66.2529 45.1635C65.8283 45.0064 65.4936 44.6717 65.3365 44.2471L63.9547 40.5128Z" fill="url(#paint5_linear_483_521)" fill-opacity="0.5"/>
<path fill-rule="evenodd" clip-rule="evenodd" d="M65.0708 44.3454L63.689 40.6111C63.2805 39.5074 61.7195 39.5074 61.311 40.6111L59.9292 44.3454C59.7434 44.8475 59.3475 45.2434 58.8454 45.4292L55.1111 46.811C54.0074 47.2195 54.0074 48.7805 55.1111 49.189L58.8454 50.5708C59.3475 50.7566 59.7434 51.1525 59.9292 51.6546L61.311 55.3889C61.7195 56.4926 63.2805 56.4926 63.689 55.3889L65.0708 51.6546C65.2566 51.1525 65.6525 50.7566 66.1546 50.5708L69.8889 49.189C70.9926 48.7805 70.9926 47.2195 69.8889 46.811L66.1546 45.4292C65.6525 45.2434 65.2566 44.8475 65.0708 44.3454ZM63.9547 40.5128C63.455 39.1624 61.545 39.1624 61.0453 40.5128L59.6635 44.2471C59.5064 44.6717 59.1717 45.0064 58.7471 45.1635L55.0128 46.5453C53.6624 47.045 53.6624 48.955 55.0128 49.4547L58.7471 50.8365C59.1717 50.9936 59.5064 51.3283 59.6635 51.7529L61.0453 55.4872C61.545 56.8376 63.455 56.8376 63.9547 55.4872L65.3365 51.7529C65.4936 51.3283 65.8283 50.9936 66.2529 50.8365L69.9872 49.4547C71.3376 48.955 71.3376 47.045 69.9872 46.5453L66.2529 45.1635C65.8283 45.0064 65.4936 44.6717 65.3365 44.2471L63.9547 40.5128Z" fill="url(#paint6_linear_483_521)" fill-opacity="0.2"/>
<path d="M80 44.6343C80 36.8281 86.3744 30.5 94.2377 30.5H192.762C200.626 30.5 207 36.8281 207 44.6343V136.366C207 144.172 200.626 150.5 192.762 150.5H94.2377C86.3744 150.5 80 144.172 80 136.366V44.6343Z" fill="url(#paint7_linear_483_521)"/>
<path d="M100.217 52.8322C100.217 52.0515 100.855 51.4187 101.641 51.4187H149.907C150.693 51.4187 151.331 52.0515 151.331 52.8322V61.03C151.331 61.8107 150.693 62.4435 149.907 62.4435H101.641C100.855 62.4435 100.217 61.8107 100.217 61.03V52.8322Z" fill="url(#paint8_linear_483_521)"/>
<path fill-rule="evenodd" clip-rule="evenodd" d="M100.217 75.871C100.217 75.0904 100.855 74.4576 101.641 74.4576H188.491C189.277 74.4576 189.915 75.0904 189.915 75.871V81.6661C189.915 82.4467 189.277 83.0795 188.491 83.0795H101.641C100.855 83.0795 100.217 82.4467 100.217 81.6661V75.871ZM100.217 87.1784C100.217 86.3978 100.855 85.765 101.641 85.765H188.491C189.277 85.765 189.915 86.3978 189.915 87.1784V92.9735C189.915 93.7541 189.277 94.3869 188.491 94.3869H101.641C100.855 94.3869 100.217 93.7541 100.217 92.9735V87.1784ZM101.641 97.0724C100.855 97.0724 100.217 97.7053 100.217 98.4859V104.281C100.217 105.062 100.855 105.694 101.641 105.694H188.491C189.277 105.694 189.915 105.062 189.915 104.281V98.4859C189.915 97.7053 189.277 97.0724 188.491 97.0724H101.641Z" fill="url(#paint9_linear_483_521)"/>
<path d="M108.328 149.5H182V200.5H85L108.328 149.5Z" fill="url(#paint10_linear_483_521)"/>
<path fill-rule="evenodd" clip-rule="evenodd" d="M86.2 95.0279L85.6368 88.8321C85.5099 87.4353 83.724 86.9568 82.9156 88.103L79.33 93.1871C78.9995 93.6557 78.4819 93.9569 77.9126 94.0109L71.7474 94.5958C70.3576 94.7276 69.8753 96.5275 71.013 97.3366L76.0598 100.926C76.5258 101.257 76.8235 101.777 76.8754 102.348L77.4385 108.544C77.5655 109.94 79.3514 110.419 80.1598 109.273L83.7454 104.189C84.0759 103.72 84.5935 103.419 85.1628 103.365L91.328 102.78C92.7178 102.648 93.2001 100.848 92.0624 100.039L87.0156 96.4501C86.5496 96.1187 86.2519 95.599 86.2 95.0279ZM85.8633 88.8115C85.7172 87.2041 83.6601 86.6529 82.7298 87.9719L79.1442 93.0561C78.8517 93.4708 78.394 93.7369 77.8911 93.7846L71.7259 94.3694C70.1264 94.5212 69.5718 96.5907 70.8812 97.5219L75.928 101.111C76.3396 101.404 76.603 101.863 76.6489 102.368L77.2121 108.564C77.3582 110.172 79.4153 110.723 80.3456 109.404L83.9312 104.32C84.2237 103.905 84.6814 103.639 85.1843 103.591L91.3495 103.006C92.949 102.855 93.5035 100.785 92.1942 99.8539L87.1474 96.2648C86.7357 95.972 86.4724 95.5127 86.4265 95.0073L85.8633 88.8115Z" fill="url(#paint11_linear_483_521)" fill-opacity="0.5"/>
<path fill-rule="evenodd" clip-rule="evenodd" d="M86.2 95.0279L85.6368 88.8321C85.5099 87.4353 83.724 86.9568 82.9156 88.103L79.33 93.1871C78.9995 93.6557 78.4819 93.9569 77.9126 94.0109L71.7474 94.5958C70.3576 94.7276 69.8753 96.5275 71.013 97.3366L76.0598 100.926C76.5258 101.257 76.8235 101.777 76.8754 102.348L77.4385 108.544C77.5655 109.94 79.3514 110.419 80.1598 109.273L83.7454 104.189C84.0759 103.72 84.5935 103.419 85.1628 103.365L91.328 102.78C92.7178 102.648 93.2001 100.848 92.0624 100.039L87.0156 96.4501C86.5496 96.1187 86.2519 95.599 86.2 95.0279ZM85.8633 88.8115C85.7172 87.2041 83.6601 86.6529 82.7298 87.9719L79.1442 93.0561C78.8517 93.4708 78.394 93.7369 77.8911 93.7846L71.7259 94.3694C70.1264 94.5212 69.5718 96.5907 70.8812 97.5219L75.928 101.111C76.3396 101.404 76.603 101.863 76.6489 102.368L77.2121 108.564C77.3582 110.172 79.4153 110.723 80.3456 109.404L83.9312 104.32C84.2237 103.905 84.6814 103.639 85.1843 103.591L91.3495 103.006C92.949 102.855 93.5035 100.785 92.1942 99.8539L87.1474 96.2648C86.7357 95.972 86.4724 95.5127 86.4265 95.0073L85.8633 88.8115Z" fill="url(#paint12_linear_483_521)" fill-opacity="0.2"/>
<g filter="url(#filter3_di_483_521)">
<path d="M82.7298 87.9719C83.6601 86.6529 85.7172 87.2041 85.8633 88.8115L86.4265 95.0073C86.4724 95.5127 86.7357 95.972 87.1474 96.2648L92.1942 99.8539C93.5035 100.785 92.949 102.855 91.3495 103.006L85.1843 103.591C84.6814 103.639 84.2237 103.905 83.9312 104.32L80.3456 109.404C79.4153 110.723 77.3582 110.172 77.2121 108.564L76.6489 102.368C76.603 101.863 76.3396 101.404 75.928 101.111L70.8812 97.5219C69.5718 96.5907 70.1264 94.5212 71.7259 94.3694L77.8911 93.7846C78.394 93.7369 78.8517 93.4708 79.1442 93.0561L82.7298 87.9719Z" fill="url(#paint13_linear_483_521)"/>
</g>
<g filter="url(#filter4_i_483_521)">
<path d="M92.4803 118.146C84.3319 109.98 75.0156 104.193 68.5895 100.928C65.9408 99.5823 63 101.579 63 104.555V217.5H105.732C105.732 217.5 117 195.484 117 169.35C117 143.215 103.535 129.225 92.4803 118.146Z" fill="url(#paint14_linear_483_521)"/>
</g>
</g>
<defs>
<filter id="filter0_i_483_521" x="62.834" y="0" width="117.166" height="142.5" filterUnits="userSpaceOnUse" color-interpolation-filters="sRGB">
<feFlood flood-opacity="0" result="BackgroundImageFix"/>
<feBlend mode="normal" in="SourceGraphic" in2="BackgroundImageFix" result="shape"/>
<feColorMatrix in="SourceAlpha" type="matrix" values="0 0 0 0 0 0 0 0 0 0 0 0 0 0 0 0 0 0 127 0" result="hardAlpha"/>
<feOffset/>
<feGaussianBlur stdDeviation="22"/>
<feComposite in2="hardAlpha" operator="arithmetic" k2="-1" k3="1"/>
<feColorMatrix type="matrix" values="0 0 0 0 1 0 0 0 0 1 0 0 0 0 1 0 0 0 0.4 0"/>
<feBlend mode="normal" in2="shape" result="effect1_innerShadow_483_521"/>
</filter>
<filter id="filter1_di_483_521" x="23" y="51.5" width="52" height="51" filterUnits="userSpaceOnUse" color-interpolation-filters="sRGB">
<feFlood flood-opacity="0" result="BackgroundImageFix"/>
<feColorMatrix in="SourceAlpha" type="matrix" values="0 0 0 0 0 0 0 0 0 0 0 0 0 0 0 0 0 0 127 0" result="hardAlpha"/>
<feOffset/>
<feGaussianBlur stdDeviation="5"/>
<feComposite in2="hardAlpha" operator="out"/>
<feColorMatrix type="matrix" values="0 0 0 0 0 0 0 0 0 0 0 0 0 0 0 0 0 0 0.15 0"/>
<feBlend mode="normal" in2="BackgroundImageFix" result="effect1_dropShadow_483_521"/>
<feBlend mode="normal" in="SourceGraphic" in2="effect1_dropShadow_483_521" result="shape"/>
<feColorMatrix in="SourceAlpha" type="matrix" values="0 0 0 0 0 0 0 0 0 0 0 0 0 0 0 0 0 0 127 0" result="hardAlpha"/>
<feOffset/>
<feGaussianBlur stdDeviation="9.5"/>
<feComposite in2="hardAlpha" operator="arithmetic" k2="-1" k3="1"/>
<feColorMatrix type="matrix" values="0 0 0 0 1 0 0 0 0 1 0 0 0 0 1 0 0 0 0.5 0"/>
<feBlend mode="normal" in2="shape" result="effect2_innerShadow_483_521"/>
</filter>
<filter id="filter2_i_483_521" x="54" y="39.5" width="17" height="17" filterUnits="userSpaceOnUse" color-interpolation-filters="sRGB">
<feFlood flood-opacity="0" result="BackgroundImageFix"/>
<feBlend mode="normal" in="SourceGraphic" in2="BackgroundImageFix" result="shape"/>
<feColorMatrix in="SourceAlpha" type="matrix" values="0 0 0 0 0 0 0 0 0 0 0 0 0 0 0 0 0 0 127 0" result="hardAlpha"/>
<feOffset/>
<feGaussianBlur stdDeviation="3"/>
<feComposite in2="hardAlpha" operator="arithmetic" k2="-1" k3="1"/>
<feColorMatrix type="matrix" values="0 0 0 0 1 0 0 0 0 1 0 0 0 0 1 0 0 0 0.6 0"/>
<feBlend mode="normal" in2="shape" result="effect1_innerShadow_483_521"/>
</filter>
<filter id="filter3_di_483_521" x="56.1504" y="77.2344" width="70.7734" height="70.9082" filterUnits="userSpaceOnUse" color-interpolation-filters="sRGB">
<feFlood flood-opacity="0" result="BackgroundImageFix"/>
<feColorMatrix in="SourceAlpha" type="matrix" values="0 0 0 0 0 0 0 0 0 0 0 0 0 0 0 0 0 0 127 0" result="hardAlpha"/>
<feOffset dx="10" dy="14"/>
<feGaussianBlur stdDeviation="12"/>
<feComposite in2="hardAlpha" operator="out"/>
<feColorMatrix type="matrix" values="0 0 0 0 0 0 0 0 0 0 0 0 0 0 0 0 0 0 0.1 0"/>
<feBlend mode="normal" in2="BackgroundImageFix" result="effect1_dropShadow_483_521"/>
<feBlend mode="normal" in="SourceGraphic" in2="effect1_dropShadow_483_521" result="shape"/>
<feColorMatrix in="SourceAlpha" type="matrix" values="0 0 0 0 0 0 0 0 0 0 0 0 0 0 0 0 0 0 127 0" result="hardAlpha"/>
<feOffset/>
<feGaussianBlur stdDeviation="3"/>
<feComposite in2="hardAlpha" operator="arithmetic" k2="-1" k3="1"/>
<feColorMatrix type="matrix" values="0 0 0 0 1 0 0 0 0 1 0 0 0 0 1 0 0 0 0.6 0"/>
<feBlend mode="normal" in2="shape" result="effect2_innerShadow_483_521"/>
</filter>
<filter id="filter4_i_483_521" x="63" y="100.5" width="54" height="117" filterUnits="userSpaceOnUse" color-interpolation-filters="sRGB">
<feFlood flood-opacity="0" result="BackgroundImageFix"/>
<feBlend mode="normal" in="SourceGraphic" in2="BackgroundImageFix" result="shape"/>
<feColorMatrix in="SourceAlpha" type="matrix" values="0 0 0 0 0 0 0 0 0 0 0 0 0 0 0 0 0 0 127 0" result="hardAlpha"/>
<feOffset/>
<feGaussianBlur stdDeviation="20"/>
<feComposite in2="hardAlpha" operator="arithmetic" k2="-1" k3="1"/>
<feColorMatrix type="matrix" values="0 0 0 0 1 0 0 0 0 1 0 0 0 0 1 0 0 0 0.15 0"/>
<feBlend mode="normal" in2="shape" result="effect1_innerShadow_483_521"/>
</filter>
<linearGradient id="paint0_linear_483_521" x1="70.5873" y1="142.5" x2="70.5873" y2="36.6022" gradientUnits="userSpaceOnUse">
<stop stop-color="#6724DC"/>
<stop offset="1" stop-color="#8F85E5"/>
</linearGradient>
<linearGradient id="paint1_linear_483_521" x1="49" y1="74.8886" x2="49" y2="95.7196" gradientUnits="userSpaceOnUse">
<stop stop-color="#D99CFF"/>
<stop offset="1" stop-color="#ABABFF"/>
</linearGradient>
<linearGradient id="paint2_linear_483_521" x1="43.5333" y1="71.0583" x2="52.5925" y2="84.8878" gradientUnits="userSpaceOnUse">
<stop stop-color="white"/>
<stop offset="1" stop-color="white" stop-opacity="0"/>
</linearGradient>
<linearGradient id="paint3_linear_483_521" x1="49" y1="77" x2="55.744" y2="83.0244" gradientUnits="userSpaceOnUse">
<stop stop-color="#7A3CE6" stop-opacity="0"/>
<stop offset="1" stop-color="#7A3CE6"/>
</linearGradient>
<linearGradient id="paint4_linear_483_521" x1="62.5" y1="44.6696" x2="62.5" y2="60.6871" gradientUnits="userSpaceOnUse">
<stop stop-color="#E8CEFF"/>
<stop offset="0.84" stop-color="#A0A6FF"/>
</linearGradient>
<linearGradient id="paint5_linear_483_521" x1="59.5958" y1="44.7417" x2="64.625" y2="52.1792" gradientUnits="userSpaceOnUse">
<stop stop-color="white"/>
<stop offset="1" stop-color="white" stop-opacity="0"/>
</linearGradient>
<linearGradient id="paint6_linear_483_521" x1="62.5" y1="48" x2="66.1833" y2="51.1875" gradientUnits="userSpaceOnUse">
<stop stop-color="#7A3CE6" stop-opacity="0"/>
<stop offset="1" stop-color="#7A3CE6"/>
</linearGradient>
<linearGradient id="paint7_linear_483_521" x1="136.951" y1="75.2967" x2="131.552" y2="141.806" gradientUnits="userSpaceOnUse">
<stop stop-color="#FBF8FF"/>
<stop offset="1" stop-color="#DBD2EC"/>
</linearGradient>
<linearGradient id="paint8_linear_483_521" x1="128.819" y1="44.3462" x2="177.037" y2="62.7806" gradientUnits="userSpaceOnUse">
<stop stop-color="#E6D8FF"/>
<stop offset="1" stop-color="#E6D8FF" stop-opacity="0.5"/>
</linearGradient>
<linearGradient id="paint9_linear_483_521" x1="115.025" y1="72.3375" x2="117.051" y2="107.317" gradientUnits="userSpaceOnUse">
<stop stop-color="#E6D8FF" stop-opacity="0.9"/>
<stop offset="1" stop-color="#E6D8FF" stop-opacity="0.5"/>
</linearGradient>
<linearGradient id="paint10_linear_483_521" x1="133.5" y1="130.393" x2="133.5" y2="210.404" gradientUnits="userSpaceOnUse">
<stop stop-color="#ADC9FF"/>
<stop offset="1" stop-color="#6F3CC8"/>
</linearGradient>
<linearGradient id="paint11_linear_483_521" x1="78.8386" y1="93.2835" x2="82.9338" y2="105.025" gradientUnits="userSpaceOnUse">
<stop stop-color="white"/>
<stop offset="1" stop-color="white" stop-opacity="0"/>
</linearGradient>
<linearGradient id="paint12_linear_483_521" x1="81.5377" y1="98.6879" x2="85.3336" y2="104.253" gradientUnits="userSpaceOnUse">
<stop stop-color="#7A3CE6" stop-opacity="0"/>
<stop offset="1" stop-color="#7A3CE6"/>
</linearGradient>
<linearGradient id="paint13_linear_483_521" x1="85.4379" y1="84.132" x2="79.6804" y2="105.619" gradientUnits="userSpaceOnUse">
<stop stop-color="#9797FF"/>
<stop offset="1" stop-color="#F877FF"/>
</linearGradient>
<linearGradient id="paint14_linear_483_521" x1="122.173" y1="134.693" x2="58.3708" y2="180.796" gradientUnits="userSpaceOnUse">
<stop stop-color="#ADC9FF"/>
<stop offset="1" stop-color="#6F30DC"/>
</linearGradient>
<clipPath id="clip0_483_521">
<rect width="180" height="180" rx="46" fill="white"/>
</clipPath>
</defs>
</svg>
