<svg width="88" height="32" viewBox="0 0 88 32" fill="none" xmlns="http://www.w3.org/2000/svg">
<path d="M78.6907 17.6734L80.4496 10.3447H87.0162L82.9414 24.8849C82.0326 28.1095 79.9513 32.0084 75.4368 32.0084C72.945 32.0084 71.0395 30.8065 70.1308 29.8098L72.5053 24.2106H72.945C73.971 24.9435 74.8212 25.3246 75.9058 25.3246C77.0198 25.3246 77.5474 25.0901 77.8406 24.0054L74.5573 23.9761L70.1308 10.3447H76.8439L78.6321 17.6734H78.6907Z" fill="#6F3CC8"/>
<path d="M63.7596 26.3507C59.7141 26.3507 57.9552 24.4159 57.9552 20.0479V16.5008L55.7859 16.6474V10.4326L58.1898 10.6085L58.2484 7.06143H65.1081L65.0494 10.6965L69.007 10.374V16.6474L65.0494 16.4129V18.6995C65.0494 19.5496 65.4012 20.0479 66.0755 20.0479C66.6618 20.0479 67.5412 19.4323 68.0689 18.9047H68.2155L69.7691 23.8589C68.7138 25.4126 66.4566 26.3507 63.7596 26.3507Z" fill="#6F3CC8"/>
<path d="M54.2437 26.0282H47.2081V17.351H45.6251V10.3447H54.2437V26.0282Z" fill="#6F3CC8"/>
<path d="M35.9621 17.7027L37.7797 10.3447H44.8153L39.5386 26.0282H32.3857L27.0797 10.3447H34.086L35.9621 17.7027Z" fill="#6F3CC8"/>
<path d="M18.0942 26.0282H11.0586V16.8819L10.4723 10.3447H17.1561L17.5958 15.7973H17.801C18.2115 10.6671 20.8205 10.0222 22.638 10.0222C25.5695 10.0222 27.0646 12.1622 27.0646 15.123V26.0282H20.029V17.9666C20.029 17.0871 19.8531 16.5888 19.2668 16.5888C18.4167 16.5888 18.0942 17.4096 18.0942 18.8753V26.0282Z" fill="#6F3CC8"/>
<path d="M8.54763 26.0282H0.984375V5.80085H8.54763V26.0282Z" fill="#6F3CC8"/>
<path d="M49.6669 0.375664C49.9162 -0.138242 50.6484 -0.138242 50.8977 0.375664L52.0463 2.74291C52.1133 2.88109 52.2249 2.99268 52.3631 3.05973L54.7303 4.20828C55.2442 4.45762 55.2442 5.18975 54.7303 5.43909L52.3631 6.58764C52.2249 6.65468 52.1133 6.76628 52.0463 6.90446L50.8977 9.2717C50.6484 9.78561 49.9162 9.78561 49.6669 9.2717L48.5184 6.90446C48.4513 6.76628 48.3397 6.65468 48.2015 6.58764L45.8343 5.43909C45.3204 5.18975 45.3204 4.45762 45.8343 4.20828L48.2015 3.05973C48.3397 2.99268 48.4513 2.88109 48.5184 2.74291L49.6669 0.375664Z" fill="#6F3CC8"/>
</svg>
