<svg viewBox="0 0 2271 600" fill="none" xmlns="http://www.w3.org/2000/svg">
<path d="M618.011 166.361C660.015 193.244 713.818 193.244 755.823 166.361V497.11H658.011C635.919 497.11 618.011 479.202 618.011 457.11V166.361Z" fill="url(#paint0_linear_729_817)"/>
<circle cx="686.994" cy="77.6939" r="77.6939" fill="url(#paint1_linear_729_817)"/>
<path d="M937.733 260.064C937.733 260.064 976.32 166.357 1042.47 166.357C1136.18 166.357 1130.67 249.039 1130.67 249.039V497.101H992.858V315.2C992.858 315.2 992.858 284.876 965.295 284.876C937.733 284.876 937.733 326.225 937.733 326.225C937.733 326.225 937.733 326.225 937.733 326.225V497.101H834.408C812.317 497.101 794.408 479.193 794.408 457.101V166.423C805.767 170.036 817.615 171.875 829.535 171.875H937.733V260.064Z" fill="url(#paint2_linear_729_817)"/>
<path d="M1505.52 166.361C1547.52 193.244 1601.32 193.244 1643.33 166.361V497.11H1545.52C1523.43 497.11 1505.52 479.202 1505.52 457.11V166.361Z" fill="url(#paint3_linear_729_817)"/>
<ellipse cx="1574.34" cy="77.6939" rx="76.3308" ry="77.6939" fill="url(#paint4_linear_729_817)"/>
<path d="M1152.72 177.383H1296.05L1317.5 404.021C1317.84 407.572 1320.82 410.285 1324.39 410.285C1327.88 410.285 1330.82 407.685 1331.25 404.222L1359.44 177.383H1475.2L1403.54 499.863H1258.47C1235.27 499.863 1215.11 483.901 1209.8 461.315L1162.19 258.971C1155.9 232.231 1152.72 204.853 1152.72 177.383Z" fill="url(#paint5_linear_729_817)"/>
<path fill-rule="evenodd" clip-rule="evenodd" d="M1737.04 127.771C1727.9 127.771 1720.5 135.176 1720.5 144.309V158.09V221.481H1676.4L1676.4 315.193H1720.5V437.849V457.108C1720.5 479.199 1738.41 497.108 1760.5 497.108H1858.31V422.689V315.193H1918.95V221.481H1858.31V127.771H1737.04Z" fill="url(#paint6_linear_729_817)"/>
<path fill-rule="evenodd" clip-rule="evenodd" d="M2260.88 187.206L2260.88 187.203H2149.38L2149.38 187.206H2260.88ZM2100.94 391.744H2097.86L2050.19 187.203H1939.46L1939.46 187.206H2050.18L2097.86 391.747H2100.94L2100.94 391.744ZM2043.26 495.554L2040.96 500.934C2038.65 506.317 2034.87 509.97 2029.62 511.892C2024.49 513.814 2018.27 514.327 2010.97 513.43C2005.56 512.753 1999.7 511.457 1993.42 509.54C1991.37 508.916 1989.27 508.226 1987.13 507.471L1987.13 507.474C1995.85 510.55 2003.79 512.536 2010.97 513.433C2018.27 514.33 2024.49 513.818 2029.62 511.895C2034.87 509.973 2038.65 506.32 2040.96 500.938L2043.26 495.555L2043.26 495.554ZM2055.44 180.588L2099.44 369.369L2144.15 180.588H2270.08L2159.51 509.163L2159.5 509.18C2153.89 526.145 2145.72 541.433 2134.98 554.996C2124.14 568.982 2109.93 579.926 2092.54 587.882C2074.89 595.954 2053.25 599.823 2027.89 599.823C2015.38 599.823 2003.41 598.837 1991.99 596.848C1980.64 594.998 1970.52 592.4 1961.69 589.002L1955.93 586.788L1982.83 498.936L1989.33 501.233C1997.72 504.191 2005.19 506.041 2011.79 506.866C2018.38 507.674 2023.45 507.139 2027.29 505.698L2027.32 505.689L2027.34 505.68C2030.8 504.416 2033.25 502.124 2034.88 498.329L2036.19 495.268L1930.25 180.588H2055.44Z" fill="url(#paint7_linear_729_817)"/>
<path d="M240.564 308.708C230.795 315.796 217.596 315.796 207.827 308.708C160.927 274.679 110.004 242.406 68.226 203.026C45.9627 182.04 32.0449 152.15 32.0449 118.979C32.0449 55.4777 83.0493 4 145.967 4C176.259 4 203.789 15.9328 224.196 35.395C244.602 15.9328 272.133 4 302.425 4C365.342 4 416.347 55.4777 416.347 118.979C416.347 152.15 402.429 182.04 380.166 203.026C338.388 242.406 287.464 274.679 240.564 308.708Z" fill="white"/>
<path fill-rule="evenodd" clip-rule="evenodd" d="M23.1753 234.422C25.9179 237.406 28.7647 240.289 31.7097 243.065C66.0803 275.463 107.175 304.249 143.816 329.915C155.323 337.976 166.392 345.729 176.675 353.19C205.362 374.004 244.045 374.004 272.732 353.19C283.015 345.729 294.083 337.976 305.591 329.916L305.592 329.915C342.232 304.249 383.327 275.463 417.697 243.065C420.393 240.524 423.006 237.894 425.533 235.178C438.875 244.524 447.599 260.013 447.599 277.54V421.619C447.599 467.292 410.574 504.316 364.902 504.316H82.6973C37.0249 504.316 0 467.292 0 421.619V277.54C0 259.532 9.20938 243.675 23.1753 234.422Z" fill="white"/>
<defs>
<linearGradient id="paint0_linear_729_817" x1="686.917" y1="143.813" x2="686.917" y2="382.071" gradientUnits="userSpaceOnUse">
<stop offset="0.241899" stop-color="#E6D8FF"/>
<stop offset="1" stop-color="white"/>
</linearGradient>
<linearGradient id="paint1_linear_729_817" x1="686.994" y1="-10.5932" x2="686.994" y2="101.341" gradientUnits="userSpaceOnUse">
<stop offset="0.241899" stop-color="#E6D8FF"/>
<stop offset="1" stop-color="white"/>
</linearGradient>
<linearGradient id="paint2_linear_729_817" x1="962.57" y1="143.81" x2="962.57" y2="382.063" gradientUnits="userSpaceOnUse">
<stop offset="0.241899" stop-color="#E6D8FF"/>
<stop offset="1" stop-color="white"/>
</linearGradient>
<linearGradient id="paint3_linear_729_817" x1="1574.42" y1="143.813" x2="1574.42" y2="382.071" gradientUnits="userSpaceOnUse">
<stop offset="0.241899" stop-color="#E6D8FF"/>
<stop offset="1" stop-color="white"/>
</linearGradient>
<linearGradient id="paint4_linear_729_817" x1="1574.34" y1="-10.5932" x2="1574.34" y2="101.341" gradientUnits="userSpaceOnUse">
<stop offset="0.241899" stop-color="#E6D8FF"/>
<stop offset="1" stop-color="white"/>
</linearGradient>
<linearGradient id="paint5_linear_729_817" x1="1313.96" y1="155.398" x2="1313.96" y2="387.699" gradientUnits="userSpaceOnUse">
<stop offset="0.241899" stop-color="#E6D8FF"/>
<stop offset="1" stop-color="white"/>
</linearGradient>
<linearGradient id="paint6_linear_729_817" x1="1797.67" y1="102.593" x2="1797.67" y2="368.647" gradientUnits="userSpaceOnUse">
<stop offset="0.241899" stop-color="#E6D8FF"/>
<stop offset="1" stop-color="white"/>
</linearGradient>
<linearGradient id="paint7_linear_729_817" x1="2100.17" y1="152.008" x2="2100.17" y2="454.007" gradientUnits="userSpaceOnUse">
<stop offset="0.241899" stop-color="#E6D8FF"/>
<stop offset="1" stop-color="white"/>
</linearGradient>
</defs>
</svg>
