<svg width="90" height="90" viewBox="0 0 90 90" fill="none" xmlns="http://www.w3.org/2000/svg">
<rect width="90" height="90" rx="45" fill="#D3BAFF"/>
<path fill-rule="evenodd" clip-rule="evenodd" d="M45.0006 90C55.0802 90 64.3858 86.686 71.8873 81.0881C68.9644 70.6093 61.9497 62.4228 53.151 59.334C59.7604 56.3594 64.36 49.7168 64.36 42C64.36 31.5068 55.8541 23 45.36 23C34.8658 23 26.36 31.5068 26.36 42C26.36 49.7168 30.9596 56.3594 37.569 59.334C28.6476 62.4658 21.5604 70.8384 18.7129 81.5275C26.1081 86.859 35.1876 90 45.0006 90ZM38.1446 47.4734C38.9816 47.0047 40.0384 47.2975 40.5158 48.1264C40.5189 48.1313 40.5265 48.1436 40.5389 48.1623C40.5671 48.2049 40.6191 48.2795 40.6962 48.3758C40.8512 48.5696 41.1016 48.8435 41.457 49.1213C42.1508 49.6633 43.2797 50.2503 44.9997 50.2503C46.7197 50.2503 47.8485 49.6633 48.5423 49.1213C48.8978 48.8435 49.1481 48.5696 49.3031 48.3758C49.3802 48.2795 49.4322 48.2049 49.4604 48.1623C49.4728 48.1436 49.4805 48.1313 49.4835 48.1264C49.961 47.2975 51.0178 47.0047 51.8547 47.4734C52.6764 47.9336 52.9849 49.0431 52.5225 49.8625C52.4833 49.9307 52.4445 49.9953 52.3777 50.0961C52.2971 50.2176 52.1841 50.3774 52.0362 50.5623C51.7412 50.931 51.3016 51.4071 50.697 51.8794C49.4708 52.8373 47.5997 53.7503 44.9997 53.7503C42.3997 53.7503 40.5285 52.8373 39.3023 51.8794C38.6978 51.4071 38.2581 50.931 37.9631 50.5623C37.8152 50.3774 37.7022 50.2176 37.6216 50.0961C37.5813 50.0352 37.549 49.9837 37.5243 49.9432C37.0179 49.1103 37.2793 47.958 38.1446 47.4734Z" fill="#F8F4FF"/>
</svg>
